<svg width="31" height="28" viewBox="0 0 31 28" fill="none" xmlns="http://www.w3.org/2000/svg">
<path d="M5.89291 24.3768L4.84375 26.2191" stroke="#7E8299" stroke-width="2" stroke-miterlimit="10" stroke-linecap="round" stroke-linejoin="round"/>
<path d="M25.498 24.3768L26.5472 26.2191" stroke="#7E8299" stroke-width="2" stroke-miterlimit="10" stroke-linecap="round" stroke-linejoin="round"/>
<path d="M2.18359 15.5617L3.19398 20.3228C3.7499 22.9426 6.06292 24.8163 8.74101 24.8163H22.6509C25.3291 24.8163 27.6421 22.9426 28.198 20.3229L29.2084 15.5617H2.18359Z" stroke="#7E8299" stroke-width="2" stroke-miterlimit="10" stroke-linecap="round" stroke-linejoin="round"/>
<path d="M1 15.5617H30.3907" stroke="#7E8299" stroke-width="2" stroke-miterlimit="10" stroke-linecap="round" stroke-linejoin="round"/>
<path d="M6.47949 15.5617V4.37104C6.47949 2.50925 7.98872 1.00002 9.85046 1.00002C11.7122 1.00002 13.2215 2.50925 13.2215 4.37104V4.41793" stroke="#7E8299" stroke-width="2" stroke-miterlimit="10" stroke-linecap="round" stroke-linejoin="round"/>
<path d="M11.4421 11.0904L11.4385 12.5925" stroke="#7E8299" stroke-width="2" stroke-miterlimit="10" stroke-linecap="round" stroke-linejoin="round"/>
<path d="M15.0029 11.0904L15.0065 12.5925" stroke="#7E8299" stroke-width="2" stroke-miterlimit="10" stroke-linecap="round" stroke-linejoin="round"/>
<path d="M16.3055 7.98059H10.1387V7.09356C10.1387 5.61586 11.3366 4.41791 12.8143 4.41791H13.6298C15.1075 4.41791 16.3055 5.61586 16.3055 7.09356V7.98059Z" stroke="#7E8299" stroke-width="2" stroke-miterlimit="10" stroke-linecap="round" stroke-linejoin="round"/>
</svg>
