<svg width="40" height="40" viewBox="0 0 40 40" fill="none" xmlns="http://www.w3.org/2000/svg">
<path d="M37.0997 29.6V20.8334C37.0992 19.8753 36.9006 18.9277 36.5163 18.05L35.8497 16.4834C36.1059 16.3316 36.3168 16.114 36.4604 15.8531C36.604 15.5923 36.6751 15.2977 36.6663 15C36.6685 14.7644 36.624 14.5307 36.5354 14.3125C36.4468 14.0942 36.3158 13.8956 36.1499 13.7282C35.9841 13.5609 35.7868 13.428 35.5693 13.3374C35.3519 13.2467 35.1186 13.2 34.883 13.2H34.4497L32.4497 8.58336C31.9069 7.32731 31.0087 6.25737 29.8657 5.50522C28.7227 4.75306 27.3846 4.35153 26.0163 4.35003H14.3497C12.9296 4.33231 11.538 4.74904 10.3613 5.54438C9.18472 6.33972 8.27927 7.47568 7.76634 8.80003L5.99967 13.2334H5.11634C4.64625 13.2333 4.19516 13.4189 3.86119 13.7498C3.52723 14.0806 3.3374 14.53 3.33301 15C3.34106 15.3809 3.47199 15.7489 3.70626 16.0492C3.94053 16.3496 4.2656 16.5662 4.63301 16.6667L4.04967 18.1167C3.72169 18.9381 3.5575 19.8156 3.56634 20.7V29.65C3.56634 29.65 3.56634 29.65 3.56634 29.7334V31.5167C3.56634 32.5908 3.99304 33.621 4.75256 34.3805C5.51208 35.14 6.54221 35.5667 7.61634 35.5667C8.69047 35.5667 9.7206 35.14 10.4801 34.3805C11.2396 33.621 11.6663 32.5908 11.6663 31.5167V30.9834H29.033V31.5167C29.033 32.0485 29.1378 32.5752 29.3413 33.0666C29.5448 33.5579 29.8431 34.0044 30.2192 34.3805C30.5953 34.7566 31.0418 35.0549 31.5331 35.2584C32.0245 35.4619 32.5512 35.5667 33.083 35.5667C33.6149 35.5667 34.1415 35.4619 34.6329 35.2584C35.1242 35.0549 35.5707 34.7566 35.9468 34.3805C36.3229 34.0044 36.6212 33.5579 36.8247 33.0666C37.0283 32.5752 37.133 32.0485 37.133 31.5167V29.7834C37.133 29.7834 37.0997 29.6667 37.0997 29.6ZM10.083 9.73336C10.415 8.89088 10.9935 8.16817 11.7428 7.6597C12.4922 7.15123 13.3775 6.88067 14.283 6.88336H25.9497C26.8287 6.88302 27.6885 7.1401 28.4231 7.62289C29.1576 8.10567 29.7347 8.79301 30.083 9.60003L34.1497 19.05C34.4006 19.6112 34.5312 20.2187 34.533 20.8334V28.5334H6.06634V20.75C6.06193 20.1791 6.16951 19.6129 6.38301 19.0834L10.083 9.73336ZM9.13301 31.5667C9.13301 31.9778 8.9697 32.372 8.67902 32.6627C8.38834 32.9534 7.99409 33.1167 7.58301 33.1167C7.17192 33.1167 6.77767 32.9534 6.48699 32.6627C6.19631 32.372 6.03301 31.9778 6.03301 31.5667V31.0334H9.13301V31.5667ZM34.633 31.5667C34.633 31.9778 34.4697 32.372 34.179 32.6627C33.8883 32.9534 33.4941 33.1167 33.083 33.1167C32.6719 33.1167 32.2777 32.9534 31.987 32.6627C31.6963 32.372 31.533 31.9778 31.533 31.5667V31.0334H34.633V31.5667ZM28.333 18.0667H11.9497C11.6237 18.0615 11.3033 17.9805 11.014 17.8301C10.7247 17.6797 10.4745 17.464 10.283 17.2C10.0626 16.9027 9.91336 16.5588 9.8469 16.1946C9.78044 15.8305 9.79849 15.456 9.89967 15.1L11.2497 10.4167C11.3732 9.95695 11.6436 9.55017 12.0197 9.25831C12.3958 8.96646 12.857 8.80553 13.333 8.80003H26.9997C27.4823 8.80845 27.9486 8.97658 28.3255 9.27813C28.7025 9.57969 28.9688 9.99767 29.083 10.4667L30.433 15.15C30.523 15.5021 30.5307 15.8701 30.4556 16.2256C30.3804 16.5811 30.2244 16.9145 29.9997 17.2C29.8073 17.463 29.5568 17.6781 29.2678 17.8284C28.9787 17.9787 28.6588 18.0603 28.333 18.0667ZM12.2663 15.5667H27.9663L26.6663 11.3H13.5663L12.2663 15.5667ZM9.33301 24.1167C8.98689 24.1167 8.64855 24.0141 8.36076 23.8218C8.07297 23.6295 7.84867 23.3562 7.71622 23.0364C7.58377 22.7166 7.54911 22.3648 7.61663 22.0253C7.68416 21.6858 7.85083 21.374 8.09557 21.1293C8.34031 20.8845 8.65213 20.7178 8.9916 20.6503C9.33107 20.5828 9.68293 20.6175 10.0027 20.7499C10.3225 20.8824 10.5958 21.1067 10.7881 21.3944C10.9804 21.6822 11.083 22.0206 11.083 22.3667C11.095 22.5997 11.0579 22.8326 10.9742 23.0503C10.8905 23.268 10.762 23.4658 10.597 23.6307C10.4321 23.7957 10.2344 23.9242 10.0166 24.0079C9.79887 24.0916 9.56598 24.1287 9.33301 24.1167ZM30.9997 24.1167C30.6536 24.1167 30.3152 24.0141 30.0274 23.8218C29.7396 23.6295 29.5153 23.3562 29.3829 23.0364C29.2504 22.7166 29.2158 22.3648 29.2833 22.0253C29.3508 21.6858 29.5175 21.374 29.7622 21.1293C30.007 20.8845 30.3188 20.7178 30.6583 20.6503C30.9977 20.5828 31.3496 20.6175 31.6694 20.7499C31.9891 20.8824 32.2625 21.1067 32.4547 21.3944C32.647 21.6822 32.7497 22.0206 32.7497 22.3667C32.7613 22.5967 32.7251 22.8267 32.6434 23.0421C32.5617 23.2574 32.4362 23.4535 32.2749 23.618C32.1136 23.7824 31.92 23.9116 31.7062 23.9975C31.4925 24.0833 31.2632 24.1239 31.033 24.1167H30.9997ZM26.3663 27.05H14.6997C14.3682 27.05 14.0502 26.9183 13.8158 26.6839C13.5814 26.4495 13.4497 26.1315 13.4497 25.8C13.4497 25.4685 13.5814 25.1506 13.8158 24.9161C14.0502 24.6817 14.3682 24.55 14.6997 24.55H26.3663C26.6979 24.55 27.0158 24.6817 27.2502 24.9161C27.4846 25.1506 27.6163 25.4685 27.6163 25.8C27.6163 26.1315 27.4846 26.4495 27.2502 26.6839C27.0158 26.9183 26.6979 27.05 26.3663 27.05Z" fill="#7E8299"/>
</svg>
