<svg width="16" height="17" viewBox="0 0 16 17" fill="none" xmlns="http://www.w3.org/2000/svg">
<path d="M7.33343 1.87334C6.29739 1.99443 5.31453 2.39781 4.49215 3.03946C3.66976 3.68111 3.03945 4.53636 2.67004 5.51184C2.30062 6.48732 2.20629 7.54555 2.39734 8.57099C2.5884 9.59643 3.0575 10.5497 3.75343 11.3267L6.66676 14.56C6.83549 14.746 7.04129 14.8947 7.27092 14.9965C7.50055 15.0982 7.74893 15.1508 8.0001 15.1508C8.25126 15.1508 8.49964 15.0982 8.72927 14.9965C8.9589 14.8947 9.1647 14.746 9.33343 14.56L12.2334 11.3267C13.0006 10.4647 13.4882 9.39012 13.6315 8.24509C13.7748 7.10006 13.5673 5.93848 13.0362 4.91396C12.5052 3.88944 11.6757 3.05024 10.6574 2.50731C9.63913 1.96439 8.48005 1.74332 7.33343 1.87334ZM8.0001 9.72667C7.55443 9.72667 7.11877 9.59451 6.74821 9.34691C6.37765 9.09932 6.08884 8.74739 5.91829 8.33565C5.74774 7.92391 5.70311 7.47084 5.79006 7.03373C5.87701 6.59663 6.09161 6.19512 6.40675 5.87999C6.72188 5.56485 7.12339 5.35024 7.56049 5.2633C7.9976 5.17635 8.45067 5.22098 8.86241 5.39153C9.27415 5.56208 9.62608 5.85089 9.87368 6.22145C10.1213 6.59201 10.2534 7.02767 10.2534 7.47334C10.2534 8.07096 10.016 8.6441 9.59344 9.06668C9.17086 9.48927 8.59772 9.72667 8.0001 9.72667Z" fill="black"/>
</svg>
