<svg width="40" height="40" viewBox="0 0 40 40" fill="none" xmlns="http://www.w3.org/2000/svg">
<path d="M6.66669 28.5167C6.33651 28.5123 6.02107 28.3793 5.78758 28.1458C5.55409 27.9123 5.42101 27.5968 5.41669 27.2667V14.5333C5.41888 13.3413 5.65611 12.1613 6.11482 11.0611C6.57352 9.96079 7.2447 8.96177 8.08993 8.12118C8.93516 7.2806 9.93786 6.61493 11.0406 6.1623C12.1434 5.70966 13.3246 5.47893 14.5167 5.48332H26.6667C26.9982 5.48332 27.3162 5.61501 27.5506 5.84943C27.785 6.08385 27.9167 6.4018 27.9167 6.73332C27.9167 7.06484 27.785 7.38278 27.5506 7.6172C27.3162 7.85162 26.9982 7.98332 26.6667 7.98332H14.5167C12.7795 7.98332 11.1135 8.6734 9.88514 9.90177C8.65678 11.1301 7.96669 12.7961 7.96669 14.5333V27.2667C7.96683 27.4351 7.93292 27.6018 7.86699 27.7568C7.80107 27.9119 7.7045 28.0519 7.58308 28.1687C7.46166 28.2854 7.31789 28.3764 7.16042 28.4362C7.00294 28.496 6.835 28.5234 6.66669 28.5167ZM34.5834 30.45V9.54998C35.216 9.24399 35.7281 8.73526 36.0382 8.10471C36.3484 7.47416 36.4389 6.75799 36.2951 6.07013C36.1514 5.38227 35.7819 4.76221 35.2452 4.30857C34.7085 3.85494 34.0356 3.59379 33.3334 3.56665C32.6215 3.56886 31.9314 3.81212 31.3755 4.25676C30.8196 4.70141 30.4308 5.32123 30.2722 6.0152C30.1137 6.70917 30.1949 7.43637 30.5027 8.07827C30.8104 8.72017 31.3264 9.23893 31.9667 9.54998C30 26.1833 15.9834 30.9333 9.68336 32.2333C9.44274 31.5527 8.97564 30.9754 8.36024 30.598C7.74484 30.2206 7.01848 30.066 6.30273 30.1601C5.58699 30.2543 4.9253 30.5914 4.4284 31.1151C3.93151 31.6388 3.62957 32.3172 3.57312 33.0369C3.51668 33.7566 3.70915 34.4739 4.11832 35.0686C4.52749 35.6634 5.12854 36.0995 5.82085 36.3041C6.51317 36.5087 7.25475 36.4692 7.92146 36.1924C8.58818 35.9156 9.13957 35.4181 9.48336 34.7833C14.8334 33.7167 26.8834 30 32.1334 18.3333V30.4C31.4527 30.661 30.8829 31.1488 30.5202 31.7811C30.1575 32.4135 30.0241 33.1516 30.1424 33.8709C30.2608 34.5902 30.6237 35.2466 31.1699 35.7294C31.7161 36.2122 32.4121 36.4917 33.1405 36.5209C33.8689 36.55 34.5851 36.327 35.1681 35.8893C35.7511 35.4517 36.1653 34.8264 36.3407 34.1188C36.5161 33.4113 36.4421 32.6649 36.131 32.0056C35.82 31.3463 35.291 30.8145 34.6334 30.5L34.5834 30.45Z" fill="#7E8299"/>
</svg>
