<svg width="160" height="40" viewBox="0 0 160 40" fill="none" xmlns="http://www.w3.org/2000/svg">
<mask id="mask0_322_3080" style="mask-type:alpha" maskUnits="userSpaceOnUse" x="0" y="-17" width="289" height="74">
<rect y="-16.63" width="288.062" height="73.26" fill="#D9D9D9"/>
</mask>
<g mask="url(#mask0_322_3080)">
<path d="M32.1182 22.5773C32.7177 24.0481 32.6946 25.6198 32.0519 27.0805C31.4093 28.5413 30.1779 29.8209 28.524 30.7468C26.7672 31.7304 24.6242 32.2601 22.4228 32.255H0.0523427V26.2929H22.4189C22.9708 26.2929 23.5001 26.1304 23.8904 25.8411C24.2807 25.5517 24.4999 25.1593 24.4999 24.7501C24.4999 24.341 24.2807 23.9486 23.8904 23.6592C23.5001 23.3699 22.9708 23.2074 22.4189 23.2074H10.1659C9.17293 23.208 8.18505 23.1021 7.23297 22.893C5.62734 22.5299 4.16675 21.8797 2.97973 20.9997C1.79271 20.1197 0.915661 19.0369 0.425767 17.8466C-0.141923 16.4281 -0.141923 14.9179 0.425767 13.4994C0.914894 12.3088 1.79168 11.2257 2.97882 10.3456C4.16595 9.46556 5.62694 8.81556 7.23297 8.45294C7.46312 8.38882 7.70076 8.34056 7.94286 8.30876L8.2735 8.23955L16.1718 14.0949H10.1737C9.62175 14.0949 9.09242 14.2574 8.70215 14.5468C8.31187 14.8361 8.09262 15.2285 8.09262 15.6377C8.09262 16.0468 8.31187 16.4393 8.70215 16.7286C9.09242 17.0179 9.62175 17.1804 10.1737 17.1804H24.6925C24.7929 17.1874 24.89 17.2111 24.9764 17.2497H25.0251L25.1184 17.2857H25.2604L25.5443 17.391H25.591L26.1589 17.4962H26.2076L26.4915 17.6015H26.5382L26.9641 17.7067H27.1061L27.3901 17.812L27.8141 18.0225L28.0513 18.1277L28.3353 18.2316L28.6193 18.3368L28.6659 18.3729L29.2338 18.6886C29.2805 18.7232 29.3758 18.7578 29.4711 18.8328L29.6112 18.9381L29.7065 19.0073C29.7323 19.0049 29.7585 19.0069 29.7831 19.0131C29.8077 19.0194 29.83 19.0297 29.8484 19.0433L29.9904 19.1486L30.4164 19.4643L30.5583 19.5696L30.6517 19.6388V19.7441L30.7937 19.8493L30.8423 19.8839C30.889 19.9546 30.9356 20.0281 30.9843 20.0944C31.031 20.1305 31.0776 20.1651 31.1262 20.1997L31.2682 20.3049L31.3149 20.3756L31.7408 21.0057L31.7875 21.0417C31.8828 21.1859 31.982 21.3214 32.0715 21.4627L32.1182 21.5319L32.2601 21.8477V21.953L32.4021 22.1981L32.1182 22.5773Z" fill="#333333"/>
<path d="M32.828 7.745V13.7056H20.1529L12.1127 7.745H32.828Z" fill="#FF8567"/>
<path d="M40.9693 16.5965L32.8823 10.498V7.745H40.9693V16.5965ZM65.4694 7.82127V20.0902C65.4724 21.9585 64.9119 23.8029 63.8302 25.4837C62.7486 27.1646 61.1742 28.638 59.2262 29.7923L58.7536 30.0417L52.9363 25.6548L53.5976 25.3336C54.1113 25.0884 54.5874 24.8011 55.0174 24.477C55.7815 23.9089 56.388 23.2319 56.8017 22.4853C57.2154 21.7387 57.428 20.9375 57.4272 20.1283V7.85793L65.4694 7.82127Z" fill="#333333"/>
<path d="M50.0033 26.1549L56.4352 31.0068L55.5366 31.2913C53.5153 31.9318 51.344 32.2595 49.1515 32.2549C47.02 32.2568 44.909 31.9418 42.9392 31.3277C40.9694 30.7137 39.1795 29.8127 37.6719 28.6764C36.1644 27.5401 34.9688 26.1908 34.1536 24.7056C33.3384 23.2204 32.9196 21.6286 32.9211 20.0212V13.2744L41.01 19.3729V20.0506C41.0223 21.6856 41.8892 23.2511 43.4225 24.4071C44.9559 25.5631 47.0319 26.2165 49.2001 26.2253H49.7661L50.0033 26.1549Z" fill="#FF8567"/>
<path d="M93.6534 14.8897C93.647 16.7859 92.6618 18.6055 90.9071 19.9618C92.6612 21.3182 93.6458 23.1378 93.6514 25.0339C93.6529 25.6358 93.5575 26.2355 93.3675 26.8201C92.8835 28.2862 91.8008 29.6001 90.2729 30.5755C88.7449 31.551 86.8493 32.1386 84.8546 32.255H65.5591V20.6507L73.5974 26.7128V26.9625H82.3495C82.9898 26.9489 83.5978 26.7473 84.0443 26.4004C84.4909 26.0536 84.7407 25.5889 84.7407 25.1051C84.7407 24.6214 84.4909 24.1567 84.0443 23.8098C83.5978 23.463 82.9898 23.2613 82.3495 23.2477H73.5974V23.9616L65.5571 17.8892V7.745H84.1447C86.2809 7.74486 88.3563 8.28207 90.0433 9.27182C91.7303 10.2616 92.9327 11.6475 93.4608 13.2108C93.652 13.7951 93.7474 14.395 93.7448 14.9969L93.6534 14.8897ZM73.5974 15.2819L75.7368 16.8889H82.3106C82.6394 16.8958 82.9667 16.853 83.2732 16.7628C83.5796 16.6726 83.859 16.5369 84.0949 16.3637C84.3307 16.1905 84.5182 15.9834 84.6462 15.7546C84.7742 15.5258 84.8401 15.2799 84.8401 15.0314C84.8401 14.783 84.7742 14.5371 84.6462 14.3083C84.5182 14.0795 84.3307 13.8724 84.0949 13.6992C83.859 13.526 83.5796 13.3903 83.2732 13.3001C82.9667 13.2099 82.6394 13.167 82.3106 13.174H73.5585L73.5974 15.2819Z" fill="#FF8567"/>
<path d="M121.853 14.8897C121.846 16.7854 120.863 18.6047 119.11 19.9618C120.863 21.3187 121.847 23.1381 121.853 25.0339C121.854 25.6358 121.759 26.2355 121.569 26.8201C121.085 28.2862 120.002 29.6001 118.474 30.5755C116.946 31.551 115.05 32.1386 113.056 32.255H93.7583V20.6507L101.799 26.7231V26.9728H110.551C110.879 26.9798 111.207 26.9369 111.513 26.8467C111.82 26.7565 112.099 26.6208 112.335 26.4477C112.571 26.2745 112.758 26.0674 112.886 25.8385C113.014 25.6097 113.08 25.3638 113.08 25.1154C113.08 24.867 113.014 24.6211 112.886 24.3923C112.758 24.1634 112.571 23.9563 112.335 23.7832C112.099 23.61 111.82 23.4743 111.513 23.3841C111.207 23.2939 110.879 23.251 110.551 23.258H101.799V23.9719L93.7583 17.8995V7.745H112.346C114.482 7.74453 116.558 8.28159 118.246 9.27137C119.933 10.2611 121.136 11.6472 121.664 13.2108C121.854 13.7953 121.949 14.395 121.948 14.9969L121.853 14.8897ZM101.799 15.2819L103.938 16.8889H110.5C111.14 16.8753 111.748 16.6736 112.195 16.3268C112.641 15.9799 112.891 15.5152 112.891 15.0314C112.891 14.5477 112.641 14.083 112.195 13.7361C111.748 13.3893 111.14 13.1876 110.5 13.174H101.748L101.799 15.2819Z" fill="#FF8567"/>
<path d="M130 7.745V16.8407L121.96 10.7774V7.745H130Z" fill="#FF8567"/>
<path d="M121.96 13.5604L130 19.6252V32.255H121.96V13.5604Z" fill="#333333"/>
</g>
</svg>
